<?xml version="1.0" encoding="iso-8859-1"?>
<!-- Generator: Adobe Illustrator 16.0.0, SVG Export Plug-In . SVG Version: 6.00 Build 0)  -->
<!DOCTYPE svg PUBLIC "-//W3C//DTD SVG 1.1//EN" "http://www.w3.org/Graphics/SVG/1.1/DTD/svg11.dtd">
<svg version="1.1" id="Capa_1" xmlns="http://www.w3.org/2000/svg" xmlns:xlink="http://www.w3.org/1999/xlink" x="0px" y="0px"
	 width="485.213px" height="485.212px" viewBox="0 0 485.213 485.212" style="enable-background:new 0 0 485.213 485.212;"
	 xml:space="preserve">
<g>
	<path d="M242.606,90.978c-75.369,0-136.468,61.097-136.468,136.468c0,53.452,31.036,99.264,75.816,121.657v75.457
		c0,16.765,13.562,30.327,30.327,30.327c0,16.764,13.562,30.326,30.324,30.326c16.764,0,30.326-13.562,30.326-30.326
		c16.76,0,30.322-13.562,30.322-30.327v-75.457c44.78-22.393,75.821-68.205,75.821-121.657
		C379.076,152.074,317.979,90.978,242.606,90.978z M272.933,424.559h-60.65v-30.322h60.65V424.559z M289.692,321.972l-16.76,8.387
		v33.547h-60.65v-33.547l-16.765-8.387c-36.424-18.211-59.052-54.428-59.052-94.527c0-58.521,47.621-106.141,106.141-106.141
		s106.139,47.621,106.139,106.141C348.745,267.544,326.119,303.761,289.692,321.972z M227.443,60.651V15.163
		C227.443,6.781,234.224,0,242.606,0c8.382,0,15.163,6.781,15.163,15.163v45.488c0,8.352-6.781,15.166-15.163,15.166
		C234.224,75.816,227.443,69.002,227.443,60.651z M373.919,151.628c-4.205-7.225-1.717-16.523,5.535-20.701l39.423-22.773
		c7.253-4.146,16.55-1.718,20.699,5.568c4.205,7.257,1.717,16.526-5.535,20.729l-39.423,22.745c-2.399,1.363-5.004,2.014-7.58,2.014
		C381.825,159.21,376.705,156.515,373.919,151.628z M312.883,75.429l22.743-39.416c4.172-7.225,13.474-9.654,20.703-5.54
		c7.253,4.177,9.74,13.476,5.535,20.701l-22.743,39.42c-2.786,4.856-7.905,7.58-13.119,7.58c-2.576,0-5.18-0.653-7.579-2.042
		C311.17,91.958,308.678,82.687,312.883,75.429z M111.293,303.257c4.205,7.257,1.72,16.521-5.538,20.703L66.34,346.704
		c-2.371,1.391-4.977,2.044-7.556,2.044c-5.241,0-10.333-2.722-13.147-7.579c-4.177-7.258-1.687-16.531,5.538-20.703l39.42-22.743
		C97.792,293.485,107.086,296,111.293,303.257z M75.816,242.606h-45.49c-8.384,0-15.166-6.781-15.166-15.161
		c0-8.382,6.781-15.164,15.166-15.164h45.49c8.352,0,15.161,6.781,15.161,15.164C90.978,235.825,84.168,242.606,75.816,242.606z
		 M45.637,113.723c4.175-7.257,13.474-9.775,20.703-5.568l39.444,22.803c7.285,4.175,9.775,13.446,5.567,20.703
		c-2.814,4.854-7.908,7.582-13.149,7.582c-2.576,0-5.183-0.653-7.579-2.046l-39.449-22.74
		C43.95,130.249,41.46,120.98,45.637,113.723z M123.316,51.174c-4.175-7.225-1.685-16.524,5.568-20.701
		c7.196-4.208,16.496-1.685,20.731,5.54l22.687,39.327c4.205,7.286,1.718,16.528-5.568,20.731c-2.371,1.365-4.978,2.014-7.551,2.014
		c-5.241,0-10.337-2.723-13.152-7.582L123.316,51.174z M439.576,341.168c-2.787,4.857-7.906,7.579-13.119,7.579
		c-2.576,0-5.181-0.653-7.58-2.044l-39.446-22.775c-7.262-4.173-9.744-13.441-5.544-20.699c4.182-7.229,13.479-9.712,20.703-5.539
		l39.451,22.775C441.293,324.637,443.781,333.911,439.576,341.168z M470.052,227.445c0,8.379-6.786,15.161-15.163,15.161h-45.49
		c-8.382,0-15.163-6.781-15.163-15.161c0-8.382,6.781-15.164,15.163-15.164h45.49C463.266,212.282,470.052,219.063,470.052,227.445z
		 M181.955,303.257l60.651-75.812h60.648L181.955,303.257z M303.255,151.628l-60.648,75.817h-60.651L303.255,151.628z"/>
</g>
<g>
</g>
<g>
</g>
<g>
</g>
<g>
</g>
<g>
</g>
<g>
</g>
<g>
</g>
<g>
</g>
<g>
</g>
<g>
</g>
<g>
</g>
<g>
</g>
<g>
</g>
<g>
</g>
<g>
</g>
</svg>
